<?xml version="1.0" encoding="UTF-8" standalone="no"?><!-- Generator: Gravit.io --><svg xmlns="http://www.w3.org/2000/svg" xmlns:xlink="http://www.w3.org/1999/xlink" style="isolation:isolate" viewBox="0 0 60 60" width="60pt" height="60pt"><defs><clipPath id="_clipPath_tjq6yeOi2Yk4sLbZmWyPBpGqO1lZNLCy"><rect width="60" height="60"/></clipPath></defs><g clip-path="url(#_clipPath_tjq6yeOi2Yk4sLbZmWyPBpGqO1lZNLCy)"><path d=" M 50.976 26.194 C 50.447 17.194 43.028 10 34.085 10 C 28.655 10 23.397 12.663 20.139 17.008 C 20.064 16.969 19.985 16.942 19.909 16.906 C 19.711 16.81 19.51 16.719 19.305 16.637 C 19.191 16.592 19.077 16.551 18.962 16.511 C 18.759 16.44 18.553 16.377 18.343 16.32 C 18.228 16.289 18.114 16.257 17.998 16.231 C 17.773 16.18 17.543 16.141 17.311 16.106 C 17.21 16.091 17.111 16.071 17.009 16.06 C 16.677 16.023 16.341 16 16 16 C 11.037 16 7 20.037 7 25 C 7 25.127 7.008 25.252 7.016 25.377 L 7.016 25.381 C 2.857 27.649 0 32.399 0 37.154 C 0 44.237 5.762 50 12.845 50 L 37.353 50 C 37.457 50 37.56 49.994 37.664 49.986 L 37.726 49.978 L 37.86 49.986 C 37.962 49.994 38.064 50 38.169 50 L 47.972 50 C 54.604 50 60 44.604 60 37.972 C 60 32.483 56.173 27.56 50.976 26.194 Z  M 47.972 48 L 38.169 48 C 38.11 48 38.053 47.995 37.995 47.991 L 37.724 47.98 L 37.526 47.991 C 37.469 47.995 37.411 48 37.353 48 L 12.845 48 C 6.865 48 2 43.135 2 37.154 C 2 33 4.705 28.688 8.433 26.901 L 9 26.63 L 9 26 C 9 25.873 9.008 25.744 9.015 25.614 L 9.024 25.454 L 9.012 25.244 C 9.006 25.163 9 25.082 9 25 C 9 21.141 12.141 18 16 18 C 16.309 18 16.614 18.027 16.917 18.067 C 16.995 18.077 17.073 18.09 17.15 18.103 C 17.417 18.147 17.68 18.205 17.939 18.28 C 17.974 18.29 18.01 18.297 18.045 18.307 C 18.33 18.394 18.608 18.504 18.88 18.628 C 18.951 18.66 19.02 18.695 19.09 18.729 C 19.33 18.848 19.565 18.978 19.792 19.125 C 21.719 20.373 23 22.538 23 25 C 23 25.553 23.447 26 24 26 C 24.553 26 25 25.553 25 25 C 25 22.246 23.754 19.781 21.8 18.129 C 24.667 14.379 29.388 12 34.085 12 C 41.83 12 48.262 18.135 48.933 25.888 C 47.911 25.816 46.381 25.779 44.85 26.012 C 44.304 26.095 43.929 26.605 44.012 27.151 C 44.087 27.646 44.513 28.001 44.999 28.001 C 45.049 28.001 45.1 27.997 45.15 27.989 C 47.377 27.652 49.698 27.968 49.834 27.987 C 54.49 28.872 58 33.161 58 37.972 C 58 43.501 53.501 48 47.972 48 Z " fill="rgb(112,112,112)"/></g></svg>