<?xml version="1.0" encoding="UTF-8" standalone="no"?><!-- Generator: Gravit.io --><svg xmlns="http://www.w3.org/2000/svg" xmlns:xlink="http://www.w3.org/1999/xlink" style="isolation:isolate" viewBox="0 0 512 512" width="512pt" height="512pt"><defs><clipPath id="_clipPath_O4CunKsr6fOukUtClQmhb7etWFDl8yaF"><rect width="512" height="512"/></clipPath></defs><g clip-path="url(#_clipPath_O4CunKsr6fOukUtClQmhb7etWFDl8yaF)"><path d=" M 256 139.272 C 260.151 139.272 263.515 135.907 263.515 131.757 L 263.515 115.726 C 263.515 111.576 260.151 108.211 256 108.211 C 251.849 108.211 248.485 111.576 248.485 115.726 L 248.485 131.757 C 248.485 135.907 251.849 139.272 256 139.272 Z " fill="rgb(112,112,112)"/><path d=" M 177.351 154.844 C 179.56 158.671 184.754 159.758 188.319 157.137 C 191.362 154.899 192.254 150.599 190.368 147.33 L 182.352 133.447 C 180.278 129.853 175.68 128.62 172.087 130.696 C 168.493 132.771 167.262 137.367 169.337 140.961 L 177.351 154.844 Z " fill="rgb(112,112,112)"/><path d=" M 113.407 202.39 L 127.291 210.406 C 128.475 211.089 129.766 211.414 131.041 211.414 C 133.638 211.414 136.164 210.065 137.556 207.656 C 139.631 204.062 138.399 199.466 134.805 197.391 L 120.922 189.375 C 117.326 187.299 112.731 188.531 110.657 192.125 C 108.581 195.719 109.813 200.315 113.407 202.39 Z " fill="rgb(112,112,112)"/><path d=" M 256 412.806 C 251.849 412.806 248.485 416.171 248.485 420.321 L 248.485 436.352 C 248.485 440.502 251.849 443.867 256 443.867 C 260.151 443.867 263.515 440.502 263.515 436.352 L 263.515 420.321 C 263.515 416.171 260.151 412.806 256 412.806 Z " fill="rgb(112,112,112)"/><path d=" M 334.649 397.234 C 332.575 393.64 327.977 392.407 324.384 394.483 C 320.79 396.559 319.558 401.155 321.633 404.749 L 329.649 418.632 C 331.857 422.458 337.051 423.545 340.616 420.924 C 343.66 418.686 344.552 414.386 342.665 411.117 L 334.649 397.234 Z " fill="rgb(112,112,112)"/><path d=" M 398.593 349.688 L 384.709 341.672 C 381.113 339.596 376.518 340.829 374.444 344.423 C 372.369 348.017 373.601 352.613 377.195 354.688 L 391.078 362.703 C 394.912 364.917 399.949 363.249 401.722 359.205 C 403.239 355.745 401.862 351.575 398.593 349.688 Z " fill="rgb(112,112,112)"/><path d=" M 416.313 268.524 L 400.282 268.524 C 396.131 268.524 392.767 271.889 392.767 276.039 C 392.767 280.189 396.131 283.554 400.282 283.554 L 416.313 283.554 C 420.464 283.554 423.828 280.189 423.828 276.039 C 423.828 271.889 420.464 268.524 416.313 268.524 Z " fill="rgb(112,112,112)"/><path d=" M 498.405 156.978 C 490.103 147.944 478.961 142.202 466.87 140.687 C 466.097 140.419 465.269 140.274 464.407 140.274 L 463.334 140.274 C 463.715 137.455 463.906 134.611 463.906 131.757 C 463.906 96.675 435.364 68.133 400.282 68.133 C 370.917 68.133 345.56 88.377 338.574 116.272 C 337.768 116.242 336.962 116.227 336.157 116.227 C 308.732 116.227 285.305 133.669 276.384 158.043 C 269.68 156.893 262.841 156.305 256 156.305 C 225.594 156.305 196.606 167.718 174.376 188.439 C 154.479 206.985 141.63 231.432 137.617 258.032 C 129.666 254.467 120.888 252.493 111.718 252.493 C 76.636 252.493 48.094 281.035 48.094 316.117 C 48.094 318.971 48.285 321.816 48.666 324.634 L 47.593 324.634 C 46.731 324.634 45.902 324.779 45.13 325.047 C 33.04 326.563 21.897 332.304 13.595 341.338 C 4.827 350.877 0 363.271 0 376.235 C 0 389.199 4.827 401.592 13.595 411.132 C 21.897 420.166 33.039 425.908 45.13 427.423 C 45.903 427.69 46.731 427.836 47.593 427.836 L 124.106 427.836 C 128.258 427.836 131.621 424.471 131.621 420.321 C 131.621 416.171 128.258 412.806 124.106 412.806 L 49.274 412.806 C 48.948 412.731 48.611 412.678 48.268 412.647 C 29.319 410.939 15.029 395.285 15.029 376.235 C 15.029 357.185 29.319 341.531 48.268 339.823 C 48.611 339.792 48.948 339.739 49.274 339.663 L 57.945 339.663 C 62.888 339.663 66.56 334.746 65.147 330.005 C 63.805 325.493 63.123 320.821 63.123 316.117 C 63.123 289.322 84.923 267.523 111.718 267.523 C 136.015 267.523 156.72 285.665 159.879 309.723 C 160.269 312.688 162.45 315.194 165.334 315.987 C 166.988 316.443 168.531 316.133 170.195 315.942 C 172.07 315.726 173.957 315.616 175.843 315.616 C 202.639 315.616 224.438 337.416 224.438 364.211 C 224.438 391.007 202.639 412.806 175.843 412.806 L 159.916 412.806 C 155.765 412.806 152.402 416.171 152.402 420.321 C 152.402 424.471 155.765 427.836 159.916 427.836 L 175.843 427.836 C 200.396 427.836 221.731 413.846 232.335 393.427 C 240.091 394.981 248.032 395.773 256 395.773 C 322.022 395.773 375.734 342.061 375.734 276.039 C 375.734 264.947 374.202 254.029 371.224 243.476 L 464.407 243.476 C 465.269 243.476 466.098 243.33 466.87 243.063 C 478.96 241.547 490.103 235.806 498.405 226.772 C 507.173 217.232 512 204.839 512 191.875 C 512 178.91 507.173 166.517 498.405 156.978 L 498.405 156.978 Z  M 360.705 276.039 C 360.705 333.774 313.734 380.744 256 380.744 C 249.842 380.744 243.703 380.205 237.681 379.144 C 238.838 374.351 239.468 369.354 239.468 364.211 C 239.468 329.129 210.926 300.587 175.843 300.587 C 175.038 300.587 174.232 300.602 173.426 300.632 C 170.014 287.01 162.214 275.221 151.712 266.714 C 156.447 213.116 201.977 171.335 256 171.335 C 261.686 171.335 267.366 171.801 272.944 172.706 C 272.681 175.054 272.532 177.435 272.532 179.851 C 272.532 214.934 301.074 243.476 336.157 243.476 L 355.519 243.476 C 358.946 253.953 360.705 264.893 360.705 276.039 L 360.705 276.039 Z  M 463.732 228.287 C 463.389 228.318 463.052 228.371 462.726 228.446 L 336.157 228.446 C 309.361 228.446 287.562 206.647 287.562 179.851 C 287.562 153.056 309.361 131.256 336.157 131.256 C 338.625 131.256 341.109 131.444 343.539 131.813 C 345.537 132.117 347.57 131.604 349.185 130.392 C 350.799 129.178 351.857 127.366 352.121 125.363 C 355.28 101.305 375.985 83.162 400.282 83.162 C 427.077 83.162 448.877 104.962 448.877 131.757 C 448.877 136.461 448.195 141.133 446.852 145.644 C 446.174 147.919 446.612 150.379 448.03 152.281 C 449.449 154.183 451.682 155.304 454.055 155.304 L 462.726 155.304 C 463.052 155.379 463.389 155.433 463.732 155.464 C 482.681 157.171 496.971 172.825 496.971 191.875 C 496.971 210.925 482.681 226.579 463.732 228.287 L 463.732 228.287 Z " fill="rgb(112,112,112)"/></g></svg>