<?xml version="1.0" encoding="UTF-8" standalone="no"?><!-- Generator: Gravit.io --><svg xmlns="http://www.w3.org/2000/svg" xmlns:xlink="http://www.w3.org/1999/xlink" style="isolation:isolate" viewBox="0 0 397.401 397.401" width="397.401pt" height="397.401pt"><defs><clipPath id="_clipPath_R3QpBnCur5fEO8EE37zdUIdeUmkrMHsM"><rect width="397.401" height="397.401"/></clipPath></defs><g clip-path="url(#_clipPath_R3QpBnCur5fEO8EE37zdUIdeUmkrMHsM)"><g><g><path d=" M 359.085 76.793 C 356.505 73.709 351.914 73.301 348.83 75.881 C 348.522 76.139 348.235 76.422 347.973 76.728 L 325.853 98.608 C 322.769 101.188 322.361 105.779 324.941 108.863 C 327.521 111.947 332.112 112.355 335.196 109.775 C 335.504 109.517 335.791 109.234 336.053 108.928 L 358.173 87.048 C 361.256 84.468 361.665 79.877 359.085 76.793 Z " fill="rgb(112,112,112)"/></g></g><g><g><path d=" M 227.256 72.236 C 227.211 72.024 227.157 71.815 227.093 71.608 L 219.093 41.528 C 218.261 37.617 214.416 35.121 210.505 35.952 C 206.594 36.783 204.098 40.629 204.929 44.54 C 204.974 44.752 205.028 44.961 205.092 45.168 L 213.092 75.248 C 213.924 79.159 217.769 81.655 221.68 80.824 C 225.591 79.993 228.088 76.147 227.256 72.236 Z " fill="rgb(112,112,112)"/><path d=" M 179.98 90.112 C 179.864 89.928 179.741 89.751 179.609 89.579 L 161.693 64.127 C 159.558 60.746 155.087 59.735 151.705 61.868 C 148.324 64.002 147.313 68.474 149.447 71.855 C 149.562 72.039 149.685 72.216 149.817 72.388 L 167.734 97.84 C 169.868 101.221 174.339 102.232 177.721 100.099 C 181.102 97.966 182.114 93.493 179.98 90.112 Z " fill="rgb(112,112,112)"/></g></g><g><g><path d=" M 326.733 227.128 C 325.373 225.768 323.96 224.435 322.493 223.128 L 323.693 220.968 C 325.182 218.231 326.517 215.413 327.693 212.528 C 344.732 169.973 324.047 121.662 281.492 104.623 C 281.412 104.591 281.333 104.559 281.253 104.528 C 242.781 89.193 198.891 104.552 178.373 140.528 C 128.223 126.522 76.214 155.822 62.207 205.973 C 59.876 214.318 58.707 222.944 58.733 231.608 C 58.733 232.808 58.733 234.061 58.733 235.368 C 23.916 237.837 -2.308 268.063 0.161 302.88 C 2.494 335.787 29.745 361.363 62.733 361.608 L 62.933 361.608 L 270.933 361.608 C 314.431 361.683 349.754 326.483 349.83 282.985 C 349.866 262.035 341.554 241.934 326.733 227.128 Z  M 225.293 118.048 C 241.515 111.597 259.591 111.597 275.813 118.048 C 310.98 132.079 328.144 171.937 314.173 207.128 C 313.161 209.551 312.013 211.915 310.733 214.208 L 310.733 214.848 C 290.652 203.174 266.445 200.95 244.573 208.768 C 240.536 192.662 232.311 177.91 220.733 166.008 C 228.822 150.99 246.843 144.365 262.733 150.568 C 266.531 151.817 270.623 149.75 271.872 145.952 C 273.018 142.468 271.377 138.677 268.053 137.128 C 246.478 128.483 221.81 136.537 209.493 156.248 C 204.034 152.144 198.147 148.643 191.933 145.808 C 199.745 133.179 211.454 123.435 225.293 118.048 Z  M 286.128 345.289 C 281.177 346.472 276.103 347.063 271.013 347.049 L 63.013 347.049 C 36.128 347.025 14.353 325.21 14.377 298.325 C 14.389 285.44 19.508 273.086 28.613 263.969 L 28.533 264.009 C 37.65 254.877 50.029 249.752 62.933 249.769 L 64.693 249.769 L 66.253 249.769 C 70.242 250.041 73.697 247.027 73.968 243.038 C 74.011 242.413 73.972 241.784 73.853 241.169 C 73.693 239.782 73.56 238.276 73.453 236.649 C 73.453 235.129 73.453 233.449 73.453 231.569 C 74.046 187.523 110.233 152.297 154.28 152.89 C 192.983 153.411 225.725 181.644 231.933 219.849 C 232.506 223.806 236.178 226.55 240.136 225.977 C 240.9 225.866 241.642 225.634 242.333 225.289 C 246.762 223.074 251.433 221.383 256.253 220.249 C 290.782 211.999 325.461 233.303 333.711 267.832 C 341.961 302.36 320.657 337.039 286.128 345.289 Z " fill="rgb(112,112,112)"/></g></g><g><g><path d=" M 397.077 145.396 C 395.973 141.815 392.318 139.669 388.652 140.448 L 358.572 148.448 C 354.71 149.448 352.385 153.383 353.372 157.248 C 354.369 161.12 358.316 163.451 362.189 162.454 C 362.197 162.452 362.205 162.45 362.212 162.448 L 392.292 154.448 C 396.114 153.27 398.256 149.217 397.077 145.396 Z " fill="rgb(112,112,112)"/></g></g><g><g><path d=" M 391.973 216.168 L 361.973 207.968 C 358.118 206.863 354.098 209.093 352.993 212.948 C 351.888 216.803 354.118 220.823 357.973 221.928 L 387.973 230.128 C 391.828 231.233 395.848 229.003 396.953 225.148 C 398.057 221.293 395.828 217.273 391.973 216.168 Z " fill="rgb(112,112,112)"/></g></g><g><g><path d=" M 289.753 36.668 C 285.898 35.563 281.878 37.793 280.773 41.648 L 272.573 71.648 C 271.429 75.479 273.607 79.513 277.438 80.657 C 277.522 80.682 277.607 80.706 277.693 80.728 C 281.529 81.857 285.554 79.663 286.683 75.827 C 286.701 75.768 286.717 75.708 286.733 75.648 L 294.733 45.648 C 295.837 41.793 293.608 37.773 289.753 36.668 Z " fill="rgb(112,112,112)"/></g></g></g></svg>