<?xml version="1.0" encoding="UTF-8" standalone="no"?><!-- Generator: Gravit.io --><svg xmlns="http://www.w3.org/2000/svg" xmlns:xlink="http://www.w3.org/1999/xlink" style="isolation:isolate" viewBox="0 0 52.966 52.966" width="52.966pt" height="52.966pt"><defs><clipPath id="_clipPath_yvqsVibFWo0Hb0zgDEBPA58p8loOgbjP"><rect width="52.966" height="52.966"/></clipPath></defs><g clip-path="url(#_clipPath_yvqsVibFWo0Hb0zgDEBPA58p8loOgbjP)"><path d=" M 51.704 51.273 L 36.845 35.82 C 40.635 32.019 42.983 26.779 42.983 21 C 42.983 9.42 33.563 0 21.983 0 C 10.403 0 0.983 9.42 0.983 21 C 0.983 32.58 10.403 42 21.983 42 C 27.066 42 31.731 40.183 35.367 37.168 L 50.262 52.659 C 50.458 52.864 50.72 52.966 50.983 52.966 C 51.233 52.966 51.482 52.873 51.676 52.687 C 52.074 52.304 52.086 51.671 51.704 51.273 Z  M 21.983 40 C 11.506 40 2.983 31.477 2.983 21 C 2.983 10.523 11.506 2 21.983 2 C 32.46 2 40.983 10.523 40.983 21 C 40.983 31.477 32.459 40 21.983 40 Z " fill="rgb(112,112,112)"/></g></svg>