<?xml version="1.0" encoding="UTF-8" standalone="no"?><!-- Generator: Gravit.io --><svg xmlns="http://www.w3.org/2000/svg" xmlns:xlink="http://www.w3.org/1999/xlink" style="isolation:isolate" viewBox="0 0 34.85 34.85" width="34.85pt" height="34.85pt"><defs><clipPath id="_clipPath_f87i6OVY3LUxcKfbV2ISbUciZp1l3Lqp"><rect width="34.85" height="34.85"/></clipPath></defs><g clip-path="url(#_clipPath_f87i6OVY3LUxcKfbV2ISbUciZp1l3Lqp)"><g><path d=" M 17.424 26.788 C 12.261 26.788 8.061 22.588 8.061 17.425 C 8.061 12.261 12.261 8.061 17.424 8.061 C 22.587 8.061 26.787 12.262 26.787 17.425 C 26.788 22.588 22.587 26.788 17.424 26.788 Z  M 17.424 9.061 C 12.813 9.061 9.061 12.813 9.061 17.425 C 9.061 22.036 12.813 25.788 17.424 25.788 C 22.035 25.788 25.787 22.036 25.787 17.425 C 25.788 12.813 22.036 9.061 17.424 9.061 Z " fill="rgb(112,112,112)"/><g><path d=" M 17.424 4.982 C 17.148 4.982 16.924 4.758 16.924 4.482 L 16.924 0.5 C 16.924 0.224 17.148 0 17.424 0 C 17.7 0 17.924 0.224 17.924 0.5 L 17.924 4.482 C 17.924 4.759 17.701 4.982 17.424 4.982 Z " fill="rgb(112,112,112)"/><path d=" M 17.424 34.85 C 17.148 34.85 16.924 34.626 16.924 34.35 L 16.924 30.368 C 16.924 30.092 17.148 29.868 17.424 29.868 C 17.7 29.868 17.924 30.092 17.924 30.368 L 17.924 34.35 C 17.924 34.626 17.701 34.85 17.424 34.85 Z " fill="rgb(112,112,112)"/></g><g><path d=" M 4.482 17.925 L 0.5 17.925 C 0.224 17.925 0 17.701 0 17.425 C 0 17.149 0.224 16.925 0.5 16.925 L 4.481 16.925 C 4.757 16.925 4.981 17.149 4.981 17.425 C 4.981 17.701 4.758 17.925 4.482 17.925 Z " fill="rgb(112,112,112)"/><path d=" M 34.349 17.925 L 30.367 17.925 C 30.091 17.925 29.867 17.701 29.867 17.425 C 29.867 17.149 30.091 16.925 30.367 16.925 L 34.349 16.925 C 34.625 16.925 34.849 17.149 34.849 17.425 C 34.849 17.701 34.625 17.925 34.349 17.925 Z " fill="rgb(112,112,112)"/></g><g><path d=" M 8.274 8.771 C 8.146 8.771 8.018 8.722 7.92 8.625 L 5.104 5.811 C 4.909 5.616 4.909 5.299 5.104 5.104 C 5.299 4.909 5.616 4.909 5.811 5.104 L 8.627 7.918 C 8.822 8.113 8.822 8.43 8.627 8.625 C 8.53 8.723 8.402 8.771 8.274 8.771 Z " fill="rgb(112,112,112)"/><path d=" M 29.393 29.893 C 29.265 29.893 29.137 29.844 29.039 29.747 L 26.223 26.93 C 26.028 26.735 26.028 26.418 26.223 26.223 C 26.418 26.028 26.735 26.028 26.93 26.223 L 29.746 29.04 C 29.941 29.235 29.941 29.552 29.746 29.747 C 29.649 29.844 29.521 29.893 29.393 29.893 Z " fill="rgb(112,112,112)"/></g><g><path d=" M 5.458 29.893 C 5.33 29.893 5.202 29.844 5.104 29.747 C 4.909 29.552 4.909 29.235 5.104 29.04 L 7.92 26.223 C 8.115 26.028 8.432 26.028 8.627 26.223 C 8.822 26.418 8.822 26.735 8.627 26.93 L 5.811 29.747 C 5.713 29.844 5.585 29.893 5.458 29.893 Z " fill="rgb(112,112,112)"/><path d=" M 26.577 8.771 C 26.449 8.771 26.321 8.722 26.223 8.625 C 26.028 8.43 26.028 8.113 26.223 7.918 L 29.039 5.104 C 29.234 4.909 29.551 4.909 29.746 5.104 C 29.941 5.299 29.941 5.616 29.746 5.811 L 26.93 8.625 C 26.833 8.723 26.705 8.771 26.577 8.771 Z " fill="rgb(112,112,112)"/></g></g></g></svg>